<svg width="76" height="27" viewBox="0 0 76 27" fill="none" xmlns="http://www.w3.org/2000/svg">
<rect width="76" height="27" rx="5" fill="black"/>
<path d="M27.2929 10.004C27.9689 10.004 28.6623 10.0083 29.3729 10.017C30.0923 10.0257 30.7596 10.056 31.3749 10.108L31.2969 11.317H27.7869C27.3103 11.317 27.0719 11.5683 27.0719 12.071V13.709H30.8029V14.905H27.0719V16.959C27.0719 17.4617 27.3103 17.713 27.7869 17.713H31.2969L31.3749 18.922C30.7596 18.974 30.0923 19.0043 29.3729 19.013C28.6623 19.0217 27.9689 19.026 27.2929 19.026C26.7383 19.026 26.2919 18.8743 25.9539 18.571C25.6246 18.259 25.4556 17.843 25.4469 17.323V11.707C25.4556 11.187 25.6246 10.7753 25.9539 10.472C26.2919 10.16 26.7383 10.004 27.2929 10.004ZM34.0177 10.03L35.9157 13.826H36.1757L38.0737 10.03H39.7507L37.4887 14.372L39.9327 19H38.2297L36.1627 14.905H35.9287L33.8617 19H32.1587L34.6027 14.372L32.3407 10.03H34.0177ZM42.7652 10.03V19H41.1402V10.03H42.7652ZM51.219 10.03V11.356H48.437V19H46.812V11.356H44.03V10.03H51.219Z" fill="white"/>
</svg>
