<svg xmlns="http://www.w3.org/2000/svg" viewBox="0 0 481.94 645.18"><defs><style>.cls-1{fill:#fff;}</style></defs><title>exit-icon-lightldpi</title><g id="Layer_2" data-name="Layer 2"><g id="Capa_1" data-name="Capa 1"><path class="cls-1" d="M18.8,265.55c0-109,88.7-197.7,197.7-197.7a197.63,197.63,0,0,1,66.6,11.5,9.39,9.39,0,0,0,6.3-17.7A216.53,216.53,0,0,0,39.3,390a9.31,9.31,0,0,0,7.7,4,9.59,9.59,0,0,0,5.4-1.7,9.36,9.36,0,0,0,2.3-13.1A196.2,196.2,0,0,1,18.8,265.55Zm51.1,136.8a9.56,9.56,0,1,0,6.7,2.8A9.47,9.47,0,0,0,69.9,402.35ZM481.2,78.15a9.49,9.49,0,0,0-8.7-5.8H423l5.3-5.3A9.4,9.4,0,0,0,415,53.75l-5.4,5.4V9.45a9.49,9.49,0,0,0-5.8-8.7,9.38,9.38,0,0,0-10.3,2l-83,83a9.47,9.47,0,0,0-2.8,6.7v32.6A165.63,165.63,0,0,0,216.3,98c-92.4,0-167.5,75.2-167.5,167.5S124,433,216.3,433a167.57,167.57,0,0,0,86.8-24.2,9.4,9.4,0,0,0-9.7-16.1,148.79,148.79,0,0,1-77,21.5c-82,0-148.7-66.7-148.7-148.7s66.7-148.7,148.7-148.7a147.36,147.36,0,0,1,91.4,31.4v12.6L290.6,178a115,115,0,1,0,13.3,13.3l17.2-17.2h12.5a149.09,149.09,0,0,1,9.2,169.8,9.52,9.52,0,0,0,3,13,9,9,0,0,0,5,1.4,9.46,9.46,0,0,0,8-4.5,167.51,167.51,0,0,0-2.1-179.7h32.7a9.47,9.47,0,0,0,6.7-2.8l83-83A8.9,8.9,0,0,0,481.2,78.15ZM312.5,265.55a96,96,0,1,1-35.1-74.2L256,212.75a65.95,65.95,0,1,0,13.4,13.4l21.4-21.4A95.79,95.79,0,0,1,312.5,265.55Zm-102.6,6.7a9.42,9.42,0,0,0,13.4,0l32.6-32.6a47.19,47.19,0,1,1-13.4-13.4l-32.6,32.6A9.48,9.48,0,0,0,209.9,272.25Zm116.8-130.2V96.35l64.2-64.2v45.7Zm59,13.2H340.1l64.2-64.2h45.6Zm21.8,29.6a9.41,9.41,0,0,0-5.6,12.1,197.31,197.31,0,0,1,12.2,68.7c0,109-88.7,197.7-197.7,197.7A196.06,196.06,0,0,1,104,428.25a9.42,9.42,0,0,0-10.7,15.5,216.64,216.64,0,0,0,326.3-253.3A9.33,9.33,0,0,0,407.5,184.85ZM334,385.05a9.37,9.37,0,1,0-13-13.5l-.1.1a9.35,9.35,0,0,0,6.5,16.2A9.69,9.69,0,0,0,334,385.05Z"/><path class="cls-1" d="M102.82,548h14.91q7.63,0,15,.28t14,.84l-.84,13h-37.8q-3.92,0-5.81,2t-1.89,6.16v52.64q0,4.2,1.89,6.16t5.81,2h37.8l.84,13q-6.59.56-14,.77t-15,.28q-7.64.06-14.91.07-9,0-14.35-5t-5.53-13.37V566.36q.14-8.4,5.53-13.37T102.82,548Zm-17.36,39.9h55.16V600.8H85.46Z"/><path class="cls-1" d="M175.06,548.3l23.38,46.76L173.38,644.9H155l26.32-49.84L157,548.3ZM206,589.18V600.8H187V589.18Zm30.8-40.88-24.36,46.76,26.32,49.84H220.42l-25.06-49.84,23.38-46.76Z"/><path class="cls-1" d="M269.28,548.3v96.6h-17.5V548.3Z"/><path class="cls-1" d="M360.28,548.3v14.28H282.86V548.3Zm-30,0v96.6h-17.5V548.3Z"/></g></g></svg>