<?xml version="1.0" encoding="utf-8"?>
<!-- Generator: Adobe Illustrator 23.0.6, SVG Export Plug-In . SVG Version: 6.00 Build 0)  -->
<svg version="1.1" id="Capa_1" xmlns="http://www.w3.org/2000/svg" xmlns:xlink="http://www.w3.org/1999/xlink" x="0px" y="0px"
	 viewBox="0 0 159 90" style="enable-background:new 0 0 159 90;" xml:space="preserve">
<style type="text/css">
	.st0{fill:#2F5EA9;}
	.st1{fill:#D35F1F;}
	.st2{fill:#F07D24;}
	.st3{fill:#343434;}
</style>
<title>Asset 1ldpi</title>
<g id="Layer_2">
	<g>
		<path class="st0" d="M117.7,40.7c0,1-0.8,1.7-1.7,1.7s-1.7-0.8-1.7-1.7c0-1,0.8-1.7,1.7-1.7c0,0,0,0,0,0
			C116.9,38.9,117.7,39.7,117.7,40.7z"/>
		<path class="st0" d="M104.5,26.2c0,1.2-1,2.2-2.2,2.2c-1.2,0-2.2-1-2.2-2.2c0-1.2,1-2.2,2.2-2.2C103.5,24,104.5,25,104.5,26.2
			C104.5,26.2,104.5,26.2,104.5,26.2z"/>
		<path class="st0" d="M110.7,44.2c0,1.2-1,2.2-2.2,2.2c-1.2,0-2.2-1-2.2-2.2s1-2.2,2.2-2.2C109.7,42,110.7,43,110.7,44.2
			L110.7,44.2z"/>
		<path class="st0" d="M105.2,35.9c0,1-0.8,1.7-1.7,1.7s-1.7-0.8-1.7-1.7c0-1,0.8-1.7,1.7-1.7l0,0C104.4,34.1,105.2,34.9,105.2,35.9
			z"/>
		<path class="st0" d="M122.3,49.9c0,1.2-1,2.2-2.2,2.2c-1.2,0-2.2-1-2.2-2.2c0-1.2,1-2.2,2.2-2.2c0,0,0,0,0,0
			C121.3,47.7,122.3,48.7,122.3,49.9z"/>
		<path class="st0" d="M111.2,32.3c0,1-0.8,1.7-1.7,1.7c-1,0-1.7-0.8-1.7-1.7c0-1,0.8-1.7,1.7-1.7c0,0,0,0,0,0
			C110.4,30.6,111.2,31.4,111.2,32.3z"/>
		<path class="st0" d="M103.9,50.1c0,1-0.8,1.7-1.7,1.7c-1,0-1.7-0.8-1.7-1.7c0-1,0.8-1.7,1.7-1.7c0,0,0,0,0,0
			C103.2,48.4,103.9,49.1,103.9,50.1C103.9,50.1,103.9,50.1,103.9,50.1z"/>
		<path class="st0" d="M42.1,40.7c0,1,0.8,1.7,1.7,1.7s1.7-0.8,1.7-1.7c0-1-0.8-1.7-1.7-1.7C42.9,38.9,42.1,39.7,42.1,40.7
			C42.1,40.7,42.1,40.7,42.1,40.7z"/>
		<path class="st0" d="M49.1,44.2c0,1.2,1,2.2,2.2,2.2c1.2,0,2.2-1,2.2-2.2c0-1.2-1-2.2-2.2-2.2c0,0,0,0,0,0
			C50.1,42,49.1,43,49.1,44.2z"/>
		<path class="st0" d="M54.6,35.9c0,1,0.8,1.7,1.7,1.7c1,0,1.7-0.8,1.7-1.7c0-1-0.8-1.7-1.7-1.7S54.6,34.9,54.6,35.9L54.6,35.9z"/>
		<path class="st0" d="M37.5,49.9c0,1.2,1,2.2,2.2,2.2s2.2-1,2.2-2.2c0-1.2-1-2.2-2.2-2.2c0,0,0,0,0,0
			C38.5,47.7,37.5,48.7,37.5,49.9L37.5,49.9z"/>
		<path class="st0" d="M48.6,32.3c0,1,0.8,1.7,1.7,1.7c1,0,1.7-0.8,1.7-1.7c0-1-0.8-1.7-1.7-1.7c0,0,0,0,0,0
			C49.4,30.6,48.6,31.4,48.6,32.3z"/>
		<path class="st0" d="M55.9,50.1c0,1,0.8,1.7,1.7,1.7c1,0,1.7-0.8,1.7-1.7c0-1-0.8-1.7-1.7-1.7c0,0,0,0,0,0
			C56.7,48.4,55.9,49.1,55.9,50.1z"/>
		<path class="st0" d="M103.8,36.3l-3.8-0.3c-0.2,0-0.3-0.2-0.3-0.4c0-0.2,0.2-0.3,0.4-0.3c0,0,0,0,0,0l2.9,0.2l-1.2-8.8
			c0-0.2,0.1-0.4,0.3-0.4c0,0,0,0,0,0c0.2,0,0.4,0.1,0.4,0.3L103.8,36.3z"/>
		<path class="st0" d="M108.7,44.6l-9-0.7c-0.2,0-0.3-0.2-0.3-0.4c0-0.2,0.2-0.3,0.4-0.3l7.7,0.6l-4.5-8l6.3-3.7
			c0.2-0.1,0.4,0,0.5,0.1c0.1,0.2,0,0.4-0.1,0.5c0,0,0,0,0,0l-5.7,3.4L108.7,44.6z"/>
		<path class="st0" d="M120.8,50.6l-12.2-6l-6.2,5.9l-4.6-1.4c-0.2-0.1-0.3-0.2-0.2-0.4c0.1-0.2,0.2-0.3,0.4-0.2l4.2,1.3l6.3-6
			l11,5.4l-3.7-8.3l-6.5-8.3l-7.1-6.1l-8.7-3.2c-0.2-0.1-0.3-0.3-0.2-0.4c0.1-0.2,0.2-0.2,0.4-0.2l8.9,3.3l7.1,6.1l6.6,8.4
			L120.8,50.6z"/>
		<path class="st0" d="M108.1,44.8l1.1-12.4c0-0.2,0.2-0.3,0.4-0.3c0.2,0,0.3,0.2,0.3,0.4l-1,11.2l7-3.3c0.2,0,0.4,0.1,0.4,0.3
			c0,0.1,0,0.3-0.1,0.4L108.1,44.8z"/>
		<path class="st0" d="M55.8,36.3l2.1-5c0.1-0.2,0.3-0.3,0.4-0.2s0.3,0.3,0.2,0.4c0,0,0,0,0,0l-1.7,3.9l2.8-0.2
			c0.2,0,0.4,0.1,0.4,0.3c0,0.2-0.1,0.4-0.3,0.4L55.8,36.3z"/>
		<path class="st0" d="M51.1,44.6l4.8-8.6l-5.7-3.4c-0.2-0.1-0.2-0.3-0.1-0.5s0.3-0.2,0.5-0.1c0,0,0,0,0,0l6.3,3.7l-4.5,8l7.7-0.6
			c0.2,0,0.4,0.1,0.4,0.3c0,0.2-0.1,0.4-0.3,0.4L51.1,44.6z"/>
		<path class="st0" d="M39,50.6l4.5-10.2l6.6-8.3l7.9-6.1c0.1-0.1,0.4-0.1,0.5,0.1c0,0,0,0,0,0c0.1,0.2,0.1,0.4-0.1,0.5l-7.8,6.1
			l-6.4,8.2l-3.7,8.3l11-5.4l6.3,6l4.2-1.3c0.2-0.1,0.4,0,0.4,0.2c0.1,0.2,0,0.4-0.2,0.4c0,0,0,0,0,0l-4.6,1.4l-6.2-5.9L39,50.6z"/>
		<path class="st0" d="M51.8,44.8l-8.1-3.8c-0.2-0.1-0.2-0.3-0.2-0.5c0.1-0.2,0.3-0.2,0.5-0.2l7,3.3l-1-11.2c0-0.2,0.1-0.4,0.3-0.4
			c0.2,0,0.4,0.1,0.4,0.3c0,0,0,0,0,0.1L51.8,44.8z"/>
		<path class="st1" d="M79.6,46.1c8.9-0.5,15.5-10.6,10.1-19.4c-0.7-1.1-1.5-2.1-2.4-2.9C90.8,35.4,80.8,38,80.8,38
			c-5.7,1.9-13.1-3-11.6-10.5c0.5-2.7,2-4.1,3.5-5.4C60.2,30.8,67.9,46.7,79.6,46.1z"/>
		<path class="st2" d="M98.8,35.1c-2.2-11.1-10.7-16.1-18-15.8c-4.3,0.2-0.5,1.3-0.5,1.3c3.9,0.4,7.5,2.6,9.5,6
			c5.4,8.8-1.2,19-10.1,19.4c-11.8,0.6-19.5-15.3-7-23.9c0,0,0.1-0.1,0.1-0.1c5.3-3.5,2-11-4.2-10.6c-4,0.3-12.1,6.7-8.7,10.1
			c0.6,0.7,0.8,2.8,0.6,4.6c-0.8,5.7,0.6,5.4,1.6,0.3c0.7-3.4,4.4-5.2,4.3-8.2c0-1.6,2.8-4.6,4.6-2.4c2.9,3.6-9.8,7-10.2,22
			c-0.1,4.6,1.5,9,4.4,12.5c5.4-0.6,11.1-0.9,16,0c6.3,1.1,9.9,1.1,12.5,0.7C98,46.6,99.8,40.2,98.8,35.1z"/>
		<path class="st3" d="M12,58.4c1.9-0.1,3.7,0.6,5.1,1.8c2.6,2.5,2.7,6.6,0.2,9.2c-0.1,0.1-0.1,0.1-0.2,0.2
			c-1.4,1.2-3.2,1.9-5.1,1.8H7.5V58.4H12z M10.6,68.9H12c1.1,0.1,2.1-0.3,2.8-1.1c1.4-1.7,1.4-4.2,0-5.9c-0.7-0.8-1.8-1.2-2.8-1.1
			h-1.4V68.9z"/>
		<path class="st3" d="M24.3,61V63c0.7-1.4,1.7-2,2.9-2v3.2h-0.8c-0.6,0-1.2,0.2-1.6,0.5c-0.4,0.5-0.6,1.2-0.5,1.8v4.9h-3.2V61H24.3
			z"/>
		<path class="st3" d="M29.5,70c-1.8-2.2-1.8-5.4,0-7.6c0.8-1,2.1-1.5,3.3-1.5c1.2-0.1,2.3,0.5,3,1.5V61H39v10.3h-3.2v-1.5
			c-0.7,1-1.8,1.6-3.1,1.6C31.6,71.5,30.4,70.9,29.5,70z M35.2,68.1c0.5-0.5,0.7-1.2,0.7-1.9c0-0.7-0.2-1.4-0.7-1.9
			c-0.8-0.9-2.2-0.9-3.1,0c0,0,0,0,0,0c-0.9,1.1-0.9,2.7,0,3.7C32.9,68.9,34.3,68.9,35.2,68.1C35.2,68.1,35.2,68.1,35.2,68.1
			L35.2,68.1z"/>
		<path class="st3" d="M44.9,62.4c0.7-1,1.8-1.5,3-1.5c1.3,0,2.5,0.5,3.4,1.5c1.8,2.2,1.8,5.4,0,7.6c-0.8,0.9-2,1.5-3.3,1.5
			c-1.2,0-2.4-0.6-3.1-1.6v6.4h-3.2V61h3.2V62.4z M48.7,68.1c0.9-1.1,0.9-2.7,0-3.7c-0.8-0.9-2.2-0.9-3.1,0c0,0,0,0,0,0
			c-0.5,0.5-0.7,1.2-0.7,1.9c0,0.7,0.2,1.4,0.7,1.9C46.5,68.9,47.8,69,48.7,68.1C48.7,68.1,48.7,68.1,48.7,68.1L48.7,68.1z"/>
		<path class="st3" d="M59,71.5c-1.4,0-2.7-0.5-3.7-1.4c-1-1-1.5-2.4-1.4-3.8c-0.1-1.4,0.4-2.8,1.4-3.8c1-1,2.3-1.5,3.7-1.4
			c1.4,0,2.7,0.5,3.7,1.4c1,1,1.6,2.4,1.5,3.9c0,0.3,0,0.7-0.1,1h-7.1c0.1,0.9,0.9,1.5,1.7,1.6c0.3,0,0.6,0,0.9-0.1
			c0.2-0.1,0.3-0.1,0.4-0.2c0.1-0.1,0.2-0.3,0.4-0.4H64c-0.3,1-0.9,1.9-1.8,2.5C61.3,71.2,60.2,71.5,59,71.5z M60.4,64.1
			c-0.4-0.3-0.8-0.5-1.3-0.4c-0.5,0-0.9,0.1-1.3,0.4c-0.3,0.3-0.6,0.7-0.6,1.2H61C61,64.8,60.8,64.4,60.4,64.1z"/>
		<path class="st3" d="M69.5,61V63c0.7-1.4,1.7-2,3-2v3.2h-0.7c-0.6,0-1.2,0.2-1.6,0.5c-0.4,0.5-0.6,1.2-0.5,1.8v4.9h-3.2V61H69.5z"
			/>
		<path class="st3" d="M80.9,69.6c-2.6-2.6-2.6-6.9,0-9.5c1.3-1.2,3-1.9,4.7-1.9c1.4,0,2.7,0.4,3.8,1.1c1.1,0.8,1.9,1.9,2.3,3.2H88
			c-0.4-0.9-1.4-1.5-2.4-1.4c-1,0-1.9,0.3-2.6,1c-1.2,1.6-1.2,3.8,0,5.4c0.7,0.7,1.6,1.1,2.6,1c1,0,1.9-0.5,2.4-1.4h3.7
			c-0.4,1.3-1.2,2.4-2.3,3.2c-1.1,0.8-2.5,1.2-3.8,1.1C83.8,71.5,82.1,70.8,80.9,69.6z"/>
		<path class="st3" d="M96.5,71.1l-4-10.1H96l2.3,6.7l2.5-6.7h3.3l-6.6,15.2h-3.3L96.5,71.1z"/>
		<path class="st3" d="M106.2,70c-1.8-2.2-1.8-5.4,0-7.6c0.8-1,2.1-1.5,3.3-1.5c1.2-0.1,2.3,0.5,3,1.5V61h3.2v10.2
			c0,1.3-0.4,2.6-1.2,3.6c-0.4,0.5-1,0.9-1.6,1.1c-2,0.7-4.2,0.5-6.1-0.5c-0.9-0.7-1.5-1.8-1.6-2.9h3.1c0.3,0.8,1,1.2,2.2,1.2
			c0.5,0,1.1-0.2,1.4-0.6c0.4-0.5,0.6-1.2,0.6-1.8v-1.4c-0.7,1-1.8,1.6-3.1,1.6C108.2,71.5,107,70.9,106.2,70z M111.9,68.1
			c0.5-0.5,0.7-1.2,0.7-1.9c0-0.7-0.2-1.4-0.7-1.9c-0.8-0.9-2.2-0.9-3.1,0c0,0,0,0,0,0c-0.9,1.1-0.9,2.7,0,3.7
			C109.6,68.9,111,68.9,111.9,68.1C111.9,68.1,111.9,68.1,111.9,68.1L111.9,68.1z"/>
		<path class="st3" d="M121.6,61v1.5c0.7-1.1,1.9-1.7,3.1-1.6c1.1,0,2.1,0.4,2.9,1.2c0.8,0.9,1.2,2,1.1,3.2v6h-3.1v-5.6
			c0-0.6-0.2-1.1-0.5-1.5c-0.8-0.7-2.1-0.7-2.9,0c-0.4,0.4-0.6,1-0.5,1.5v5.6h-3.2V61H121.6z"/>
		<path class="st3" d="M138.4,61h3.2v10.3h-3.2v-1.5c-0.7,1.1-1.9,1.7-3.1,1.6c-1.1,0-2.1-0.4-2.9-1.2c-0.8-0.9-1.2-2-1.1-3.2v-6
			h3.1v5.6c0,0.6,0.2,1.1,0.5,1.5c0.8,0.7,2.1,0.7,2.9,0c0.4-0.4,0.6-1,0.5-1.5L138.4,61z"/>
		<path class="st3" d="M143.6,64.1c0-0.9,0.4-1.8,1.2-2.3c0.9-0.7,2-1,3.1-0.9c1.1-0.1,2.3,0.3,3.2,0.9c0.8,0.6,1.3,1.5,1.3,2.5
			h-3.2c0-0.3-0.1-0.6-0.4-0.7c-0.3-0.1-0.6-0.2-0.9-0.2c-0.8,0-1.2,0.3-1.2,0.8c0,0.5,0.5,0.8,1.5,0.9c1,0.2,1.9,0.4,2.8,0.8
			c0.9,0.4,1.6,1.3,1.5,2.3c0,0.9-0.5,1.8-1.2,2.4c-0.9,0.6-2,1-3.1,0.9c-1.1,0-2.2-0.3-3.1-0.9c-0.8-0.6-1.3-1.5-1.4-2.5h3.2
			c0.1,0.6,0.5,0.9,1.3,0.9c0.3,0,0.6-0.1,0.9-0.3c0.2-0.1,0.4-0.4,0.4-0.7c0-0.3-0.2-0.5-0.6-0.6c-0.5-0.2-1-0.3-1.4-0.4
			c-0.6-0.1-1.1-0.2-1.7-0.4c-0.6-0.2-1.1-0.5-1.5-0.9C143.8,65.3,143.6,64.7,143.6,64.1z"/>
	</g>
</g>
</svg>
