<?xml version="1.0" encoding="utf-8"?>
<!-- Generator: Adobe Illustrator 23.0.6, SVG Export Plug-In . SVG Version: 6.00 Build 0)  -->
<svg version="1.1" id="Capa_1" xmlns="http://www.w3.org/2000/svg" xmlns:xlink="http://www.w3.org/1999/xlink" x="0px" y="0px"
	 viewBox="0 0 159 90" style="enable-background:new 0 0 159 90;" xml:space="preserve">
<style type="text/css">
	.st0{fill:#FFFFFF;}
</style>
<title>Asset 2ldpi</title>
<g id="Layer_2_1_">
	<g>
		<g>
			<path class="st0" d="M120.1,47.7C120.1,47.7,120.1,47.7,120.1,47.7c-0.2,0-0.4,0-0.6,0.1l-2.5-5.7c0.4-0.3,0.7-0.8,0.7-1.4
				c0-1-0.8-1.7-1.7-1.7c0,0,0,0,0,0c-0.3,0-0.6,0.1-0.8,0.2l-4.4-5.6c0.3-0.3,0.4-0.7,0.4-1.2c0-1-0.8-1.7-1.7-1.7c0,0,0,0,0,0
				c-0.4,0-0.8,0.1-1.1,0.4l-4.2-3.6c0.2-0.3,0.3-0.7,0.3-1.2c0-1.2-1-2.2-2.2-2.2c-0.9,0-1.6,0.5-2,1.2l-6.7-2.5
				c-0.2-0.1-0.3,0-0.4,0.2c-0.1,0.2,0,0.4,0.2,0.4l6.7,2.5c0,0.1,0,0.3,0,0.4c0,1.2,0.9,2.1,2,2.2l0.8,5.8
				c-0.5,0.2-0.9,0.6-1.1,1.2l-1.7-0.1c0,0,0,0,0,0c-0.2,0-0.3,0.1-0.4,0.3c0,0.2,0.1,0.4,0.3,0.4l1.7,0.1c0.1,0.9,0.8,1.5,1.7,1.5
				c0.2,0,0.4,0,0.5-0.1l2.9,5.1c-0.3,0.3-0.5,0.6-0.6,1.1l-6.5-0.5c-0.2,0-0.3,0.1-0.4,0.3c0,0.2,0.1,0.4,0.3,0.4l6.5,0.5
				c0,0.4,0.2,0.8,0.4,1.1l-3.4,3.2c-0.3-0.2-0.6-0.3-1-0.3c0,0,0,0,0,0c-0.7,0-1.2,0.4-1.5,0.9l-2.8-0.9c-0.2-0.1-0.4,0-0.4,0.2
				c-0.1,0.2,0,0.4,0.2,0.4l2.8,0.9c0,0.1,0,0.1,0,0.2c0,1,0.8,1.7,1.7,1.7c1,0,1.7-0.8,1.7-1.8c0,0,0,0,0,0c0-0.3-0.1-0.6-0.3-0.9
				l3.4-3.2c0.4,0.3,0.8,0.5,1.4,0.5c0.8,0,1.4-0.4,1.8-1l7.7,3.7c-0.1,0.2-0.1,0.4-0.1,0.7c0,1.2,1,2.2,2.2,2.2
				c1.2,0,2.2-1,2.2-2.2C122.3,48.7,121.3,47.7,120.1,47.7z M109,42l0.7-8c0.2,0,0.4-0.1,0.6-0.2l4.4,5.6c-0.3,0.3-0.4,0.7-0.4,1.1
				c0,0.1,0,0.3,0.1,0.4l-4,1.9C110,42.5,109.5,42.2,109,42z M103.6,34.1l-0.8-5.8c0.4-0.1,0.7-0.3,1-0.5l4.2,3.6
				c-0.1,0.3-0.2,0.5-0.2,0.9c0,0.2,0,0.4,0.1,0.6l-3.1,1.8C104.5,34.4,104,34.2,103.6,34.1z M105.2,35.9c0-0.2,0-0.4-0.1-0.5
				l3.1-1.8c0.2,0.2,0.5,0.4,0.8,0.5l-0.7,8c-0.3,0-0.6,0.1-0.9,0.3l-2.8-5C105,36.9,105.2,36.4,105.2,35.9z M110.6,44.8
				c0.1-0.2,0.1-0.4,0.1-0.7c0-0.2,0-0.4-0.1-0.6l4-1.9c0.3,0.4,0.8,0.7,1.4,0.7c0.1,0,0.3,0,0.4,0l2.5,5.7
				c-0.2,0.2-0.5,0.4-0.6,0.6L110.6,44.8z"/>
			<path class="st0" d="M62,48.4l-2.8,0.9c-0.3-0.5-0.9-0.9-1.5-0.9c0,0,0,0,0,0c-0.4,0-0.7,0.1-1,0.3l-3.4-3.2
				c0.2-0.3,0.3-0.7,0.4-1.1l6.5-0.5c0.2,0,0.3-0.2,0.3-0.4c0-0.2-0.2-0.3-0.4-0.3l-6.5,0.5c-0.1-0.4-0.3-0.8-0.6-1l2.9-5.1
				c0.2,0.1,0.4,0.1,0.5,0.1c0.9,0,1.6-0.7,1.7-1.5l1.7-0.1c0.2,0,0.3-0.2,0.3-0.4c0-0.2-0.2-0.3-0.4-0.3L58,35.4
				c-0.1-0.4-0.4-0.7-0.7-1l1.2-2.9c0,0,0,0,0,0c0.1-0.2,0-0.4-0.2-0.4c-0.2-0.1-0.4,0-0.4,0.2l-1.2,2.9c-0.1,0-0.2,0-0.4,0
				c-0.5,0-1,0.2-1.3,0.6L52,32.9c0.1-0.2,0.1-0.4,0.1-0.6c0-0.3-0.1-0.6-0.2-0.8l6.5-5.1c0.1-0.1,0.2-0.3,0.1-0.5c0,0,0,0,0,0
				c-0.1-0.1-0.3-0.2-0.5-0.1L51.5,31c-0.3-0.3-0.7-0.4-1.1-0.4c0,0,0,0,0,0c-1,0-1.7,0.8-1.7,1.7c0,0.4,0.2,0.8,0.4,1.1l-4.4,5.6
				c-0.2-0.1-0.5-0.2-0.7-0.2c-1,0-1.7,0.8-1.8,1.7c0,0,0,0,0,0c0,0.6,0.3,1.1,0.7,1.4l-2.5,5.7c-0.2,0-0.4-0.1-0.6-0.1c0,0,0,0,0,0
				c-1.2,0-2.2,1-2.2,2.2c0,1.2,1,2.2,2.2,2.2c1.2,0,2.2-1,2.2-2.2c0-0.2,0-0.5-0.1-0.7l7.7-3.7c0.4,0.6,1.1,0.9,1.8,0.9
				c0.5,0,1-0.2,1.4-0.5l3.4,3.2c-0.2,0.3-0.3,0.6-0.3,0.9c0,1,0.8,1.7,1.7,1.8s1.7-0.8,1.8-1.7c0-0.1,0-0.1,0-0.2l2.8-0.9
				c0,0,0,0,0,0c0.2-0.1,0.3-0.3,0.2-0.4S62.1,48.4,62,48.4z M45.2,39.5l4.4-5.6c0.2,0.1,0.4,0.1,0.6,0.2l0.7,8
				c-0.5,0.1-1,0.5-1.3,0.9l-4-1.9c0-0.1,0-0.3,0-0.4C45.6,40.2,45.4,39.8,45.2,39.5z M54.7,35.3c-0.1,0.2-0.1,0.4-0.1,0.6
				c0,0.5,0.2,1,0.6,1.3l-2.8,5c-0.3-0.1-0.6-0.2-0.9-0.3l-0.7-8c0.3-0.1,0.6-0.3,0.8-0.5L54.7,35.3z M41.6,48.6
				c-0.2-0.2-0.4-0.4-0.6-0.6l2.5-5.6c0.1,0,0.2,0,0.4,0c0.6,0,1.1-0.3,1.4-0.7l4,1.9c-0.1,0.2-0.1,0.4-0.1,0.6c0,0.2,0,0.4,0.1,0.7
				L41.6,48.6z"/>
			<path class="st0" d="M98.8,35.1c-2.2-11.1-10.7-16.1-18-15.8c-4.3,0.2-0.5,1.3-0.5,1.3c2.7,0.3,5.1,1.4,7.1,3.1
				C90.8,35.4,80.8,38,80.8,38c-5.7,1.9-13.1-3-11.6-10.5c0.5-2.7,2-4.1,3.5-5.4c0,0,0.1-0.1,0.1-0.1c5.3-3.5,2-11-4.2-10.6
				c-4,0.3-12.1,6.7-8.7,10.1c0.6,0.7,0.8,2.8,0.6,4.6c-0.8,5.7,0.6,5.4,1.6,0.3c0.7-3.4,4.4-5.2,4.3-8.2c0-1.6,2.8-4.6,4.6-2.4
				c2.9,3.6-9.8,7-10.2,22c-0.1,4.6,1.5,9,4.4,12.5c5.4-0.6,11.1-0.9,16,0c6.3,1.1,9.9,1.1,12.5,0.7C98,46.6,99.8,40.2,98.8,35.1z
				 M79.7,46.1c-0.4,0-0.7,0-1.1,0C78.9,46.1,79.3,46.1,79.7,46.1c8.9-0.5,15.5-10.6,10.1-19.4c-0.6-1-1.4-2-2.3-2.8
				c0.9,0.8,1.7,1.7,2.3,2.8C95.1,35.4,88.6,45.6,79.7,46.1z"/>
		</g>
		<path class="st0" d="M12,58.4c1.9-0.1,3.7,0.6,5.1,1.8c2.6,2.5,2.7,6.6,0.2,9.2c-0.1,0.1-0.1,0.1-0.2,0.2
			c-1.4,1.2-3.2,1.9-5.1,1.8H7.5V58.4H12z M10.6,68.9H12c1.1,0.1,2.1-0.3,2.8-1.1c1.4-1.7,1.4-4.2,0-5.9c-0.7-0.8-1.8-1.2-2.8-1.1
			h-1.4V68.9z"/>
		<path class="st0" d="M24.3,61V63c0.7-1.4,1.7-2,2.9-2v3.2h-0.8c-0.6,0-1.2,0.2-1.6,0.5c-0.4,0.5-0.6,1.2-0.5,1.8v4.9h-3.2V61H24.3
			z"/>
		<path class="st0" d="M29.5,70c-1.8-2.2-1.8-5.4,0-7.6c0.8-1,2.1-1.5,3.3-1.5c1.2-0.1,2.3,0.5,3,1.5V61H39v10.3h-3.2v-1.5
			c-0.7,1-1.8,1.6-3.1,1.6C31.6,71.5,30.4,70.9,29.5,70z M35.2,68.1c0.5-0.5,0.7-1.2,0.7-1.9c0-0.7-0.2-1.4-0.7-1.9
			c-0.8-0.9-2.2-0.9-3.1,0c0,0,0,0,0,0c-0.9,1.1-0.9,2.7,0,3.7C32.9,68.9,34.3,68.9,35.2,68.1C35.2,68.1,35.2,68.1,35.2,68.1
			L35.2,68.1z"/>
		<path class="st0" d="M44.9,62.4c0.7-1,1.8-1.5,3-1.5c1.3,0,2.5,0.5,3.4,1.5c1.8,2.2,1.8,5.4,0,7.6c-0.8,0.9-2,1.5-3.3,1.5
			c-1.2,0-2.4-0.6-3.1-1.6v6.4h-3.2V61h3.2V62.4z M48.7,68.1c0.9-1.1,0.9-2.7,0-3.7c-0.8-0.9-2.2-0.9-3.1,0c0,0,0,0,0,0
			c-0.5,0.5-0.7,1.2-0.7,1.9c0,0.7,0.2,1.4,0.7,1.9C46.5,68.9,47.8,69,48.7,68.1C48.7,68.1,48.7,68.1,48.7,68.1L48.7,68.1z"/>
		<path class="st0" d="M59,71.5c-1.4,0-2.7-0.5-3.7-1.4c-1-1-1.5-2.4-1.4-3.8c-0.1-1.4,0.4-2.8,1.4-3.8c1-1,2.3-1.5,3.7-1.4
			c1.4,0,2.7,0.5,3.7,1.4c1,1,1.6,2.4,1.5,3.9c0,0.3,0,0.7-0.1,1h-7.1c0.1,0.9,0.9,1.5,1.7,1.6c0.3,0,0.6,0,0.9-0.1
			c0.2-0.1,0.3-0.1,0.4-0.2c0.1-0.1,0.2-0.3,0.4-0.4H64c-0.3,1-0.9,1.9-1.8,2.5C61.3,71.2,60.2,71.5,59,71.5z M60.4,64.1
			c-0.4-0.3-0.8-0.5-1.3-0.4c-0.5,0-0.9,0.1-1.3,0.4c-0.3,0.3-0.6,0.7-0.6,1.2H61C61,64.8,60.8,64.4,60.4,64.1z"/>
		<path class="st0" d="M69.5,61V63c0.7-1.4,1.7-2,3-2v3.2h-0.7c-0.6,0-1.2,0.2-1.6,0.5c-0.4,0.5-0.6,1.2-0.5,1.8v4.9h-3.2V61H69.5z"
			/>
		<path class="st0" d="M80.9,69.6c-2.6-2.6-2.6-6.9,0-9.5c1.3-1.2,3-1.9,4.7-1.9c1.4,0,2.7,0.4,3.8,1.1c1.1,0.8,1.9,1.9,2.3,3.2H88
			c-0.4-0.9-1.4-1.5-2.4-1.4c-1,0-1.9,0.3-2.6,1c-1.2,1.6-1.2,3.8,0,5.4c0.7,0.7,1.6,1.1,2.6,1c1,0,1.9-0.5,2.4-1.4h3.7
			c-0.4,1.3-1.2,2.4-2.3,3.2c-1.1,0.8-2.5,1.2-3.8,1.1C83.8,71.5,82.1,70.8,80.9,69.6z"/>
		<path class="st0" d="M96.5,71.1l-4-10.1H96l2.3,6.7l2.5-6.7h3.3l-6.6,15.2h-3.3L96.5,71.1z"/>
		<path class="st0" d="M106.2,70c-1.8-2.2-1.8-5.4,0-7.6c0.8-1,2.1-1.5,3.3-1.5c1.2-0.1,2.3,0.5,3,1.5V61h3.2v10.2
			c0,1.3-0.4,2.6-1.2,3.6c-0.4,0.5-1,0.9-1.6,1.1c-2,0.7-4.2,0.5-6.1-0.5c-0.9-0.7-1.5-1.8-1.6-2.9h3.1c0.3,0.8,1,1.2,2.2,1.2
			c0.5,0,1.1-0.2,1.4-0.6c0.4-0.5,0.6-1.2,0.6-1.8v-1.4c-0.7,1-1.8,1.6-3.1,1.6C108.2,71.5,107,70.9,106.2,70z M111.9,68.1
			c0.5-0.5,0.7-1.2,0.7-1.9c0-0.7-0.2-1.4-0.7-1.9c-0.8-0.9-2.2-0.9-3.1,0c0,0,0,0,0,0c-0.9,1.1-0.9,2.7,0,3.7
			C109.6,68.9,111,68.9,111.9,68.1C111.9,68.1,111.9,68.1,111.9,68.1L111.9,68.1z"/>
		<path class="st0" d="M121.6,61v1.5c0.7-1.1,1.9-1.7,3.1-1.6c1.1,0,2.1,0.4,2.9,1.2c0.8,0.9,1.2,2,1.1,3.2v6h-3.1v-5.6
			c0-0.6-0.2-1.1-0.5-1.5c-0.8-0.7-2.1-0.7-2.9,0c-0.4,0.4-0.6,1-0.5,1.5v5.6h-3.2V61H121.6z"/>
		<path class="st0" d="M138.4,61h3.2v10.3h-3.2v-1.5c-0.7,1.1-1.9,1.7-3.1,1.6c-1.1,0-2.1-0.4-2.9-1.2c-0.8-0.9-1.2-2-1.1-3.2v-6
			h3.1v5.6c0,0.6,0.2,1.1,0.5,1.5c0.8,0.7,2.1,0.7,2.9,0c0.4-0.4,0.6-1,0.5-1.5L138.4,61z"/>
		<path class="st0" d="M143.6,64.1c0-0.9,0.4-1.8,1.2-2.3c0.9-0.7,2-1,3.1-0.9c1.1-0.1,2.3,0.3,3.2,0.9c0.8,0.6,1.3,1.5,1.3,2.5
			h-3.2c0-0.3-0.1-0.6-0.4-0.7c-0.3-0.1-0.6-0.2-0.9-0.2c-0.8,0-1.2,0.3-1.2,0.8c0,0.5,0.5,0.8,1.5,0.9c1,0.2,1.9,0.4,2.8,0.8
			c0.9,0.4,1.6,1.3,1.5,2.3c0,0.9-0.5,1.8-1.2,2.4c-0.9,0.6-2,1-3.1,0.9c-1.1,0-2.2-0.3-3.1-0.9c-0.8-0.6-1.3-1.5-1.4-2.5h3.2
			c0.1,0.6,0.5,0.9,1.3,0.9c0.3,0,0.6-0.1,0.9-0.3c0.2-0.1,0.4-0.4,0.4-0.7c0-0.3-0.2-0.5-0.6-0.6c-0.5-0.2-1-0.3-1.4-0.4
			c-0.6-0.1-1.1-0.2-1.7-0.4c-0.6-0.2-1.1-0.5-1.5-0.9C143.8,65.3,143.6,64.7,143.6,64.1z"/>
	</g>
</g>
</svg>
